<svg style="width:0; height:0; visibility: hidden;" xmlns="http://www.w3.org/2000/svg">
	<symbol id="svg-logo" viewBox="0 0 112 108">
		<path d="M111.603 29.941L71.9339 18.5102C71.978 18.5545 72.0001 18.5782 72.0001 18.6667C72.0442 18.7109 72.0001 18.9116 72.0001 19L72.1764 23.1982C72.1764 23.2867 72.1323 23.3751 72.0882 23.4636C72.0442 23.552 71.956 23.5962 71.8238 23.6405L71.6475 23.6847L111.163 34.4963C111.251 34.5405 111.295 34.5405 111.383 34.5405C111.471 34.5405 111.559 34.4963 111.647 34.4521C111.736 34.4079 111.78 34.3636 111.824 34.2752C111.868 34.231 111.868 34.1425 111.868 34.0541V30.2948C111.868 30.2064 111.824 30.1179 111.78 30.0737C111.78 30.0295 111.692 29.941 111.603 29.941Z" fill="#54565A"/>
		<path d="M111.647 36L72.1542 27.199C72.1983 27.2432 72.3305 27.2875 72.3746 27.3759C72.4187 27.4202 72.4187 27.5086 72.4187 27.5971V31.8428C72.4187 31.9312 72.3746 32.0197 72.3305 32.1081C72.2865 32.1966 72.1542 32.2408 72.0661 32.285H71.9338L111.295 40.2899C111.339 40.2899 111.427 40.2899 111.471 40.2899C111.559 40.2899 111.647 40.2457 111.735 40.2015C111.824 40.1573 111.868 40.113 111.912 40.0246C111.956 39.9803 111.956 39.8919 111.956 39.8034V36.3538C111.956 36.2654 111.956 36.1769 111.868 36.1327C111.824 36.0885 111.735 36 111.647 36Z" fill="#54565A"/>
		<path d="M111.559 41.9705L72.1542 35.9558L72.2424 36C72.2865 36.0442 72.3306 36.0885 72.3746 36.1769C72.4187 36.2211 72.4187 36.3096 72.4187 36.3538V40.3342C72.4187 40.4226 72.3746 40.5553 72.2865 40.5995C72.1983 40.688 72.1102 40.7322 71.9779 40.7764H71.8457L111.251 46.0393H111.383C111.471 46.0393 111.603 45.9951 111.691 45.9509C111.736 45.9066 111.824 45.8624 111.824 45.8182C111.868 45.774 111.868 45.6855 111.868 45.6413V42.4128C111.868 42.3243 111.824 42.2359 111.78 42.1474C111.78 42.0147 111.691 41.9705 111.559 41.9705Z" fill="#54565A"/>
		<path d="M111.515 47.4103L72.0661 44.0491C72.1102 44.0491 72.1983 44.0934 72.2424 44.1376C72.2865 44.1818 72.3306 44.226 72.3746 44.2703C72.4187 44.3145 72.4187 44.4029 72.4187 44.4472V49.2236C72.4187 49.312 72.3746 49.4447 72.2865 49.5332C72.1983 49.6216 72.1102 49.6658 71.9779 49.6658H71.8457L111.339 52.3194H111.427C111.559 52.3194 111.691 52.2752 111.78 52.1867C111.868 52.0983 111.912 52.0098 111.912 51.8771V47.8083C111.912 47.7199 111.868 47.6314 111.78 47.543C111.736 47.4988 111.647 47.4545 111.515 47.4103Z" fill="#54565A"/>
		<path d="M111.471 53.6462L71.978 51.8329C72.0221 51.8329 72.1984 51.8772 72.2425 51.9214C72.3307 52.0098 72.4188 52.1425 72.4188 52.231V56.4767C72.4188 56.6093 72.3747 56.6978 72.2866 56.7862C72.1984 56.8747 72.0662 56.9189 71.934 56.9189H71.8899L111.427 57.9803C111.559 57.9803 111.692 57.9361 111.78 57.8477C111.868 57.7592 111.912 57.6708 111.912 57.5381V54.0885C111.912 54 111.868 53.8673 111.78 53.7789C111.692 53.6904 111.603 53.6462 111.471 53.6462Z" fill="#54565A"/>
		<path d="M111.427 59.6167H71.978C72.0662 59.6167 72.1984 59.6609 72.2425 59.7052C72.3307 59.7936 72.3747 59.9263 72.3747 60.0147V63.3759C72.3747 63.5086 72.3307 63.597 72.2425 63.6855C72.1544 63.774 72.0221 63.8182 71.8899 63.8182H111.427C111.515 63.8182 111.559 63.8182 111.603 63.774C111.647 63.7297 111.736 63.7297 111.78 63.6855C111.824 63.6413 111.868 63.597 111.868 63.5528C111.912 63.5086 111.912 63.4201 111.912 63.3759V60.0147C111.912 59.9705 111.912 59.8821 111.868 59.8378C111.824 59.7936 111.824 59.7494 111.78 59.7052C111.736 59.6609 111.692 59.6167 111.603 59.6167C111.559 59.6167 111.515 59.6167 111.427 59.6167Z" fill="#54565A"/>
		<path d="M2.4683 16.8943C2.33607 16.8501 2.24791 16.8059 2.11568 16.8059C1.98345 16.8059 1.85122 16.8501 1.76307 16.8943L0.440752 17.6462C0.352598 17.6904 0.264443 17.7789 0.176289 17.8673C0.132212 17.9558 0.0881348 18.0885 0.0881348 18.1769V63.1106C0.0881348 63.2875 0.176289 63.4202 0.30852 63.5528C0.440752 63.6855 0.61706 63.7297 0.837446 63.7297H2.11568C2.29199 63.7297 2.51238 63.6413 2.64461 63.5528C2.77684 63.4202 2.86499 63.2875 2.86499 63.1106V17.4693C2.86499 17.3366 2.82092 17.2482 2.77684 17.1597C2.64461 17.0713 2.55645 16.9828 2.4683 16.8943Z" fill="#00ADBB"/>
		<path d="M7.18448 14.0197C7.05225 13.9754 6.96409 13.9312 6.83186 13.9312C6.69963 13.9312 6.5674 13.9754 6.47924 14.0197L5.20101 14.7715C5.11285 14.8157 5.0247 14.9042 4.93654 14.9926C4.89247 15.0811 4.84839 15.1695 4.84839 15.3022V63.1548C4.84839 63.3317 4.93654 63.4644 5.06877 63.5971C5.20101 63.7297 5.37731 63.774 5.5977 63.774H6.92001C7.09632 63.774 7.31671 63.6855 7.44894 63.5971C7.58117 63.4644 7.66933 63.3317 7.66933 63.1548V14.5946C7.66933 14.4619 7.62525 14.3735 7.58117 14.285C7.40486 14.1523 7.27263 14.0639 7.18448 14.0197Z" fill="#00ADBB"/>
		<path d="M11.8568 11.1892C11.7246 11.145 11.5924 11.1007 11.4601 11.145C11.3279 11.145 11.1957 11.1892 11.0635 11.2776L9.82929 11.9853C9.74114 12.0295 9.65298 12.1179 9.60891 12.2064C9.56483 12.2948 9.52075 12.3833 9.52075 12.516V63.1548C9.52075 63.3317 9.60891 63.4644 9.74114 63.5971C9.87337 63.7297 10.0497 63.774 10.2701 63.774H11.5483C11.6365 63.774 11.7246 63.774 11.8128 63.7297C11.9009 63.6855 11.9891 63.6413 12.0331 63.5971C12.0772 63.5528 12.1654 63.4644 12.2095 63.3759C12.2535 63.2875 12.2535 63.199 12.2535 63.1106V11.8084C12.2535 11.6757 12.2095 11.5872 12.1213 11.4545C12.0772 11.3219 11.9891 11.2776 11.8568 11.1892Z" fill="#00ADBB"/>
		<path d="M16.6612 8.44718C16.5289 8.40295 16.4408 8.35872 16.3085 8.35872C16.1763 8.35872 16.0441 8.40295 15.9559 8.44718L14.6777 9.19902C14.5895 9.24324 14.5014 9.3317 14.4573 9.42015C14.4132 9.5086 14.3691 9.59705 14.3691 9.72973V63.1106C14.3691 63.2875 14.4573 63.4202 14.5895 63.5528C14.7218 63.6855 14.8981 63.7297 15.1185 63.7297H16.3085C16.4848 63.7297 16.7052 63.6413 16.8375 63.5528C16.9697 63.4202 17.0578 63.2875 17.0578 63.1106V9.02211C17.0578 8.88944 17.0138 8.80098 16.9697 8.71253C16.8375 8.57985 16.7493 8.4914 16.6612 8.44718Z" fill="#00ADBB"/>
		<path d="M21.3774 5.70516C21.2451 5.66093 21.1129 5.61671 20.9807 5.61671C20.8484 5.61671 20.7162 5.66093 20.584 5.70516L19.2617 6.457C19.1735 6.50123 19.0854 6.58968 19.0413 6.67813C18.9972 6.76658 18.9531 6.85504 18.9531 6.98771V63.1548C18.9531 63.3317 19.0413 63.4644 19.1735 63.597C19.3057 63.7297 19.4821 63.774 19.7024 63.774H21.0248C21.2011 63.774 21.4214 63.6855 21.5537 63.597C21.6859 63.4644 21.7741 63.3317 21.7741 63.1548V6.19165C21.7741 6.10319 21.73 5.97052 21.6418 5.88206C21.5978 5.79361 21.5096 5.74938 21.3774 5.70516Z" fill="#00ADBB"/>
		<path d="M26.1376 2.87469C26.0494 2.83047 25.9172 2.78624 25.785 2.78624C25.6528 2.78624 25.5205 2.83047 25.4324 2.87469L24.1101 3.62653C24.0219 3.67076 23.9337 3.75921 23.8897 3.84766C23.8456 3.93612 23.8015 4.02457 23.8015 4.15725V63.0663C23.8015 63.1548 23.8015 63.2432 23.8456 63.2875C23.8897 63.3759 23.9337 63.4201 23.9778 63.5086C24.066 63.5528 24.1101 63.597 24.1982 63.6413C24.2864 63.6855 24.3745 63.6855 24.4627 63.6855H25.785C25.9613 63.6855 26.1817 63.597 26.3139 63.5086C26.4461 63.3759 26.5343 63.2432 26.5343 63.0663V3.44963C26.5343 3.31695 26.4902 3.2285 26.4461 3.14005C26.3139 3.00737 26.2258 2.91892 26.1376 2.87469Z" fill="#00ADBB"/>
		<path d="M30.854 0.0884521C30.7218 0.044226 30.6336 0 30.5014 0C30.3692 0 30.2369 0.044226 30.1488 0.0884521L28.8706 0.840295C28.7824 0.884521 28.6942 0.972973 28.6502 1.06143C28.6061 1.14988 28.562 1.23833 28.562 1.37101V63.1106C28.562 63.2875 28.6502 63.4201 28.7824 63.5528C28.9146 63.6855 29.0909 63.7297 29.3113 63.7297H30.6336C30.7218 63.7297 30.8099 63.7297 30.8981 63.6855C30.9863 63.6413 31.0744 63.597 31.1185 63.5528C31.2066 63.5086 31.2507 63.4201 31.2507 63.3317C31.2948 63.2432 31.2948 63.1548 31.2948 63.1106V0.663391C31.2948 0.530712 31.2507 0.44226 31.2066 0.353808C31.0744 0.22113 30.9863 0.132678 30.854 0.0884521Z" fill="#00ADBB"/>
		<path d="M38.7878 3.49386C38.7437 3.49386 38.6996 3.44963 38.6996 3.44963C38.6556 3.44963 38.6115 3.44963 38.6115 3.49386C38.5674 3.49386 38.5674 3.53808 38.5233 3.58231C38.5233 3.62653 38.4792 3.62653 38.4792 3.67076V63.5528C38.4792 63.597 38.5233 63.6413 38.5233 63.6855C38.5233 63.7297 38.6115 63.7297 38.6996 63.7297H39.9779C40.0219 63.7297 40.1101 63.7297 40.1542 63.6855C40.1983 63.6413 40.1983 63.597 40.1983 63.5528V4.4226C40.1983 4.37838 40.1983 4.37838 40.1542 4.33415C40.1542 4.28993 40.1101 4.28993 40.066 4.2457L38.7878 3.49386Z" fill="#00ADBB"/>
		<path d="M34.0715 0.707617C34.0274 0.707617 33.9833 0.663391 33.9393 0.663391C33.8952 0.663391 33.8511 0.663391 33.807 0.707617C33.763 0.707617 33.763 0.751843 33.7189 0.796069C33.7189 0.840295 33.6748 0.840295 33.6748 0.884521V63.5528C33.6748 63.597 33.7189 63.6413 33.7189 63.6855C33.7189 63.7297 33.807 63.7297 33.8952 63.7297H35.2175C35.2616 63.7297 35.3497 63.7297 35.3938 63.6855C35.4379 63.6413 35.4379 63.597 35.4379 63.5528V1.63636C35.4379 1.59214 35.4379 1.59214 35.3938 1.54791C35.3938 1.50369 35.3497 1.50369 35.3057 1.45946L34.0715 0.707617Z" fill="#00ADBB"/>
		<path d="M71.8015 18.4423L63.9117 21.6708V18.3538C63.9117 18.3096 63.9117 18.3096 63.8676 18.2654C63.8676 18.2211 63.8236 18.2211 63.7795 18.1769L62.4572 17.4251C62.4131 17.4251 62.369 17.3808 62.3249 17.3808C62.2809 17.3808 62.2368 17.3808 62.1927 17.4251C62.1486 17.4251 62.1486 17.4693 62.1046 17.5135C62.1046 17.5577 62.0605 17.5577 62.0605 17.602V22.3342L59.0632 23.5725V15.6118C59.0632 15.5676 59.0632 15.5676 59.0192 15.5233C59.0192 15.4791 58.9751 15.4791 58.931 15.4349L57.6087 14.683C57.5646 14.683 57.5205 14.6388 57.5205 14.6388C57.4765 14.6388 57.4324 14.6388 57.4324 14.683C57.3883 14.683 57.3442 14.7273 57.3442 14.7715C57.3002 14.8157 57.3001 14.8157 57.3001 14.86V24.3243L54.3029 25.5627V12.7813C54.3029 12.7371 54.3029 12.7371 54.2588 12.6929C54.2588 12.6486 54.2148 12.6486 54.1707 12.6044L52.9365 11.8526H52.8924C52.8484 11.8526 52.8043 11.8084 52.8043 11.8084C52.7602 11.8084 52.7161 11.8084 52.7161 11.8526C52.672 11.8526 52.6721 11.8968 52.628 11.941C52.628 11.9853 52.5839 11.9853 52.5839 12.0295V26.226L49.5866 27.4644V10.0393C49.5866 9.99509 49.5867 9.99509 49.5426 9.95086C49.5426 9.90663 49.4985 9.90663 49.4544 9.86241L48.1762 9.11057C48.1321 9.11057 48.088 9.06634 48.044 9.06634C47.9999 9.06634 47.9558 9.06634 47.9117 9.11057C47.8676 9.11057 47.8676 9.15479 47.8236 9.19902C47.8236 9.24324 47.7795 9.24324 47.7795 9.28747V28.2162L44.9145 29.4103V7.16462C44.9145 7.12039 44.9145 7.12039 44.8704 7.07617C44.8263 7.03194 44.8263 7.03194 44.7822 6.98772L43.4599 6.23587C43.4159 6.23587 43.3718 6.19165 43.3277 6.19165C43.2836 6.19165 43.2395 6.19165 43.1955 6.23587C43.1514 6.23587 43.1514 6.2801 43.1073 6.32432C43.1073 6.36855 43.0632 6.36855 43.0632 6.41278V34.0983C43.0632 34.1867 43.0632 34.231 43.1073 34.3194C43.1514 34.3636 43.1955 34.4521 43.2836 34.4963C43.3718 34.5405 43.4599 34.5848 43.5922 34.5848C43.6362 34.5848 43.7244 34.5848 43.7685 34.5848L71.6693 23.7936L71.8456 23.7494C71.9338 23.7052 72.0219 23.6609 72.1101 23.5725C72.1541 23.484 72.1982 23.3956 72.1982 23.3071V18.8403C72.1982 18.5009 71.9999 18.3333 71.8015 18.4423Z" fill="#00ADBB"/>
		<path d="M72.2423 27.2432C72.1983 27.199 72.1101 27.199 72.022 27.199C71.9338 27.199 71.8897 27.199 71.8016 27.2432L43.7244 36C43.6363 36.0442 43.5481 36.0885 43.46 36.1769C43.4159 36.2654 43.3718 36.3538 43.3718 36.4423V39.9361C43.3718 40.0246 43.3718 40.0688 43.4159 40.113C43.46 40.1573 43.5041 40.2457 43.5481 40.2899C43.6363 40.3342 43.7685 40.3784 43.8567 40.3784H43.9889L71.8897 32.285H72.022C72.1101 32.2408 72.1983 32.1966 72.2864 32.1081C72.3305 32.0197 72.3746 31.9312 72.3746 31.8428V27.5528C72.3746 27.4644 72.3746 27.4202 72.3305 27.3317C72.3746 27.3317 72.2864 27.2875 72.2423 27.2432Z" fill="#00ADBB"/>
		<path d="M72.2866 36L72.1984 35.9558C72.1103 35.9116 71.978 35.9116 71.8458 35.9558L43.7687 42.0147C43.6364 42.059 43.5483 42.1032 43.4601 42.1916C43.372 42.2801 43.3279 42.3686 43.3279 42.457V45.6855C43.3279 45.7297 43.3279 45.8182 43.372 45.8624C43.416 45.9066 43.4601 45.9509 43.5042 45.9951C43.5923 46.0393 43.7246 46.0835 43.8127 46.0835H43.9009L71.8458 40.7322H71.978C72.1103 40.7322 72.1984 40.6437 72.2866 40.5553C72.3747 40.4668 72.4188 40.3784 72.4188 40.2899V36.3096C72.4188 36.2654 72.4188 36.1769 72.3747 36.1327C72.3747 36.0885 72.3306 36.0442 72.2866 36Z" fill="#00ADBB"/>
		<path d="M72.1103 44.0491C72.0221 44.0491 71.9339 44.0491 71.8458 44.0491L43.7687 47.4545C43.6364 47.4545 43.5483 47.543 43.4601 47.5872C43.372 47.6757 43.3279 47.7641 43.3279 47.8968V51.9656C43.3279 52.0098 43.3279 52.0983 43.372 52.1425C43.416 52.1867 43.4601 52.2752 43.5042 52.3194C43.5923 52.4079 43.7246 52.4521 43.8568 52.4079H43.9009L71.8899 49.7101H72.0221C72.1543 49.7101 72.2425 49.6216 72.3306 49.5774C72.4188 49.4889 72.4629 49.4005 72.4629 49.2678V44.4472C72.4629 44.4029 72.4629 44.3145 72.4188 44.2703C72.3747 44.226 72.3306 44.1376 72.2866 44.1376C72.2425 44.0491 72.1543 44.0491 72.1103 44.0491Z" fill="#00ADBB"/>
		<path d="M72.1103 51.8329C72.0221 51.8329 71.978 51.8329 71.8899 51.8329L43.8127 53.6904C43.6805 53.6904 43.5483 53.7346 43.4601 53.8231C43.372 53.9115 43.3279 54 43.3279 54.1327V57.6265C43.3279 57.6708 43.3279 57.7592 43.372 57.8034C43.416 57.8477 43.4601 57.8919 43.5042 57.9361C43.5483 57.9803 43.5923 58.0246 43.6805 58.0246C43.7246 58.0688 43.8127 58.0688 43.8568 58.0688L71.8899 56.9631H72.0221C72.1543 56.9631 72.2866 56.9189 72.3747 56.8305C72.4629 56.742 72.5069 56.6536 72.5069 56.5209V52.2752C72.5069 52.1425 72.4629 52.0098 72.3306 51.9656C72.2425 51.8772 72.1984 51.8329 72.1103 51.8329Z" fill="#00ADBB"/>
		<path d="M72.0662 59.5725H71.978L43.9009 59.6609C43.7686 59.6609 43.6364 59.7052 43.5482 59.7936C43.4601 59.8821 43.416 59.9705 43.416 60.1032V63.3759C43.416 63.5086 43.4601 63.5971 43.5482 63.6855C43.6364 63.774 43.7686 63.8182 43.9009 63.8182H71.9339C72.0661 63.8182 72.1984 63.774 72.2865 63.6855C72.3747 63.5971 72.4188 63.4644 72.4188 63.3759V60.0147C72.4188 59.8821 72.3747 59.7936 72.2865 59.7052C72.2425 59.6609 72.1543 59.6167 72.0662 59.5725Z" fill="#00ADBB"/>
		<path d="M14.7658 67.1351H3.26171C1.10193 67.1351 0 68.1081 0 70.0983V96.5897C0 98.5799 1.10193 99.5528 3.26171 99.5528H14.7658C17.0138 99.5528 18.1157 98.5799 18.1157 96.5897V88.5405H12.6501V95.3514H5.50964V71.2482H12.6501V77.7052H18.1598V70.0983C18.1598 68.1081 17.0138 67.1351 14.7658 67.1351Z" fill="#54565A"/>
		<path d="M21.157 71.4251H27.2396V99.5971H32.7493V71.4251H38.8319V67.1351H21.157V71.4251Z" fill="#54565A"/>
		<path d="M59.5922 67.3563V67.1351H53.5536L47.4269 80.8894V67.1351H41.9172V99.5971H47.4269V85.1351L54.4351 99.5971H60.5178L52.0991 82.7912L59.5922 67.3563Z" fill="#54565A"/>
		<path d="M86.7878 78.7666H77.6639V71.3808H89.9173V67.0909H72.5068V82.8796H84.7603V95.3514H77.9283V89.0713H72.5068V96.5455C72.5068 98.5356 73.5647 99.5086 75.7685 99.5086H86.8319C89.0798 99.5086 90.1818 98.5356 90.1818 96.5455V81.6413C90.1377 79.7396 88.9917 78.7666 86.7878 78.7666Z" fill="#54565A"/>
		<path d="M108.606 67.1351H97.3221C95.1183 67.1351 94.0164 68.1081 94.0164 70.0983V82.7027C94.0164 84.6487 95.1183 85.6216 97.3221 85.6216H106.49V95.3956H99.6142V89.7346H94.1927V96.6339C94.1927 98.6241 95.2946 99.5971 97.5425 99.5971H108.65C110.854 99.5971 111.956 98.6241 111.956 96.6339V70.1425C112 68.1081 110.854 67.1351 108.606 67.1351ZM106.534 81.5528H99.4819V71.2924H106.534V81.5528Z" fill="#54565A"/>
		<path d="M67.7023 83.0123H62.1045V87.9214H67.7023V83.0123Z" fill="#54565A"/>
		<path d="M4.14314 102.914L4.01091 103.754C3.48198 103.754 3.12936 103.754 2.38005 103.754C1.67482 103.754 1.3222 104.108 1.3222 105.391C1.3222 106.673 1.54259 107.027 2.38005 107.027C2.95306 107.027 3.52606 107.027 4.09906 106.983L4.23129 107.823C3.61421 108 2.99713 108.044 2.38005 108.044C0.616967 108.044 -0.0441895 107.381 -0.0441895 105.435C-0.0441895 103.489 0.616967 102.826 2.38005 102.826C2.99713 102.781 3.61421 102.826 4.14314 102.914Z" fill="#54565A"/>
		<path d="M7.7575 103.754V107.867H6.47926V103.71H4.76025V102.781H9.47651V103.71L7.7575 103.754Z" fill="#54565A"/>
		<path d="M14.5012 104.418C14.5012 105.7 13.9723 106.054 12.5618 106.054C12.2092 106.054 11.8566 106.01 11.504 106.01V107.867H10.1816V102.826C10.8869 102.781 11.6362 102.737 12.3855 102.781C13.9723 102.781 14.5012 103.135 14.5012 104.418ZM12.3855 105.214C13.0467 105.214 13.223 105.037 13.223 104.418C13.223 103.799 13.0467 103.622 12.3855 103.622H11.504V105.214H12.3855Z" fill="#54565A"/>
		<path d="M20.099 105.346C20.099 107.381 19.4378 107.956 17.6307 107.956C15.8235 107.956 15.1624 107.381 15.1624 105.346C15.1624 103.312 15.7794 102.737 17.6307 102.737C19.4819 102.737 20.099 103.356 20.099 105.346ZM16.4847 105.346C16.4847 106.673 16.7491 107.071 17.6307 107.071C18.5122 107.071 18.7326 106.673 18.7326 105.346C18.7326 104.02 18.4681 103.622 17.6307 103.622C16.7932 103.666 16.4847 104.02 16.4847 105.346Z" fill="#54565A"/>
		<path d="M24.5069 107.867V104.86C24.5069 104.639 24.5509 104.418 24.595 104.197H24.5509C24.4628 104.418 24.3746 104.639 24.2424 104.86L22.303 107.867H21.0688V102.826H22.2589V105.789C22.2589 106.01 22.2589 106.275 22.2149 106.496C22.303 106.275 22.4352 106.054 22.5675 105.833L24.5069 102.826H25.741V107.867H24.5069Z" fill="#54565A"/>
		<path d="M29.4434 103.754V107.867H28.2092V103.71H26.4902V102.781H31.2065V103.71L29.4434 103.754Z" fill="#54565A"/>
		<path d="M35.7905 107.867C34.9971 107.956 34.0275 107.956 33.1018 107.956C32.9255 107.956 32.7933 107.956 32.617 107.912C32.4848 107.867 32.3084 107.779 32.2203 107.69C32.0881 107.602 31.9999 107.469 31.9558 107.337C31.9118 107.204 31.8677 107.071 31.8677 106.939V103.887C31.8677 103.754 31.9118 103.622 31.9558 103.489C31.9999 103.356 32.1321 103.224 32.2203 103.135C32.3525 103.047 32.4848 102.958 32.617 102.914C32.7492 102.87 32.9255 102.87 33.1018 102.87C33.9834 102.87 34.9971 102.87 35.7905 102.958V103.799H33.5426C33.2781 103.799 33.1459 103.887 33.1459 104.152V104.904H35.4379V105.7H33.19V106.673C33.19 106.939 33.3222 107.071 33.5867 107.071H35.7905V107.867Z" fill="#54565A"/>
		<path d="M41.3443 107.867H40.066V103.622H39.3167C39.2286 103.622 39.1845 103.622 39.0963 103.622C39.0522 103.622 38.9641 103.666 38.92 103.71C38.8759 103.754 38.8319 103.799 38.7878 103.843C38.7437 103.887 38.7437 103.975 38.7437 104.02C38.6996 104.948 38.5674 105.877 38.2589 106.762C38.1707 107.115 37.9062 107.425 37.5536 107.646C37.201 107.867 36.7602 107.912 36.3635 107.867L36.2754 106.983C36.4517 106.983 36.628 106.939 36.7602 106.806C36.8925 106.717 37.0247 106.585 37.0688 106.408C37.3332 105.568 37.5095 104.683 37.5095 103.843C37.5095 103.71 37.5536 103.533 37.5977 103.4C37.6859 103.268 37.774 103.135 37.9062 103.047C38.0385 102.958 38.1707 102.87 38.347 102.826C38.5233 102.781 38.6996 102.781 38.8759 102.781H41.2561V107.867H41.3443Z" fill="#54565A"/>
		<path d="M44.5619 104.727C46.1486 104.727 46.6335 105.125 46.6335 106.364C46.6335 107.602 46.0605 107.956 44.7822 107.956C43.7244 107.956 43.1955 107.956 42.4902 107.912V102.87H43.7685V104.727H44.5619ZM44.5619 107.071C45.2671 107.071 45.3993 106.939 45.3993 106.319C45.3993 105.7 45.2671 105.523 44.5619 105.523H43.7244V107.115H44.5619V107.071Z" fill="#54565A"/>
		<path d="M52.011 107.867H50.7328V105.612H48.7052V107.867H47.427V102.826H48.7052V104.772H50.7328V102.826H52.011V107.867Z" fill="#54565A"/>
		<path d="M54.391 106.585L53.9943 107.912H52.7161L54.391 103.135C54.4351 103.047 54.4792 102.958 54.5673 102.914C54.6555 102.87 54.7436 102.826 54.8318 102.826H56.0218C56.11 102.826 56.2422 102.826 56.2863 102.914C56.3745 102.958 56.4185 103.047 56.4626 103.135L58.1375 107.867H56.8593L56.4626 106.541L54.391 106.585ZM55.6252 104.197C55.5811 104.064 55.537 103.887 55.4929 103.71H55.2725L55.1403 104.197L54.6555 105.744H56.0659L55.6252 104.197Z" fill="#54565A"/>
		<path d="M63.0302 102.826V107.867H61.7519V105.921H60.9145C60.8263 105.921 60.7822 105.921 60.6941 105.921C60.6059 105.921 60.5618 105.966 60.5178 106.01C60.4737 106.054 60.4296 106.098 60.3855 106.143C60.3415 106.187 60.3415 106.275 60.3415 106.319L59.9007 107.823H58.5784L59.0191 106.275C59.0632 106.098 59.1514 105.921 59.3277 105.789C59.504 105.656 59.6803 105.568 59.9007 105.523C59.0632 105.435 58.7988 104.993 58.7988 104.241C58.7988 103.135 59.4158 102.737 60.8704 102.737C61.6197 102.781 62.3249 102.781 63.0302 102.826ZM61.7519 103.622H60.9145C60.2974 103.622 60.077 103.754 60.077 104.329C60.077 104.904 60.2533 105.081 60.9145 105.081H61.7519V103.622Z" fill="#54565A"/>
		<path d="M69.3774 105.258C70.5234 105.391 70.6556 105.966 71.3609 107.867H70.0386C69.4215 106.143 69.2893 105.656 68.4077 105.656H68.011C68.0551 105.833 68.0551 105.966 68.0551 106.143V107.867H66.7769V102.826H68.0551V104.241C68.0551 104.462 68.0551 104.639 68.011 104.86H68.4077C69.2893 104.86 69.4656 104.241 69.9504 102.826H71.2286C70.6116 104.462 70.4793 105.081 69.4215 105.214V105.258H69.3774Z" fill="#54565A"/>
		<path d="M76.65 105.346C76.65 107.381 75.9889 107.956 74.1817 107.956C72.3745 107.956 71.7134 107.381 71.7134 105.346C71.7134 103.312 72.3745 102.737 74.1817 102.737C75.9889 102.737 76.65 103.356 76.65 105.346ZM73.0798 105.346C73.0798 106.673 73.3442 107.071 74.1817 107.071C75.0192 107.071 75.2836 106.673 75.2836 105.346C75.2836 104.02 75.0192 103.622 74.1817 103.622C73.3442 103.622 73.0798 104.02 73.0798 105.346Z" fill="#54565A"/>
		<path d="M83.3939 102.826C83.438 102.826 83.5261 102.826 83.5702 102.826C83.6143 102.826 83.7024 102.87 83.7465 102.914C83.7906 102.958 83.8347 103.002 83.8347 103.047C83.8787 103.091 83.8788 103.135 83.8788 103.224L84.0991 107.823H82.865L82.6887 103.666H82.5564L81.6749 106.806C81.6749 106.894 81.5867 107.027 81.4986 107.071C81.4104 107.16 81.2782 107.16 81.146 107.16H80.3085C80.1763 107.16 80.044 107.115 79.9559 107.071C79.8677 107.027 79.7796 106.894 79.7796 106.806L78.898 103.666H78.7658L78.5895 107.867H77.3994L77.6198 103.268C77.6198 103.224 77.6198 103.135 77.6198 103.091C77.6198 103.047 77.6639 103.002 77.708 102.958C77.752 102.914 77.7961 102.87 77.8843 102.87C77.9283 102.87 78.0165 102.826 78.0606 102.87H79.2947C79.427 102.87 79.5151 102.914 79.6033 102.958C79.6914 103.002 79.7796 103.135 79.7796 103.224L80.4848 105.744C80.5289 105.966 80.573 106.231 80.6611 106.452H80.7493C80.7493 106.231 80.8374 105.966 80.8815 105.744L81.5867 103.224C81.5867 103.135 81.6749 103.047 81.763 102.958C81.8512 102.914 81.9834 102.87 82.1157 102.87L83.3939 102.826Z" fill="#54565A"/>
		<path d="M89.6088 107.867H88.3306V103.622H86.303V107.867H85.0688V102.826H89.6088V107.867Z" fill="#54565A"/>
		<path d="M91.9889 106.585L91.5922 107.912H90.314L91.9889 103.135C92.033 103.047 92.0771 102.958 92.1652 102.914C92.2534 102.87 92.3415 102.826 92.4297 102.826H93.6198C93.7079 102.826 93.8401 102.87 93.8842 102.914C93.9724 102.958 94.0164 103.047 94.0605 103.135L95.7355 107.912H94.4572L94.0605 106.585H91.9889ZM93.2231 104.152C93.2231 104.02 93.1349 103.843 93.0908 103.666H92.8704L92.7382 104.152L92.2534 105.7H93.6638L93.2231 104.152Z" fill="#54565A"/>
		<path d="M100.892 107.867H99.6141V105.612H97.5866V107.867H96.3083V102.826H97.5866V104.772H99.6141V102.826H100.892V107.867Z" fill="#54565A"/>
		<path d="M105.521 107.867V104.86C105.521 104.639 105.565 104.418 105.609 104.197H105.565C105.477 104.418 105.388 104.639 105.256 104.86L103.361 107.867H102.127V102.826H103.317V105.789C103.317 106.01 103.317 106.275 103.273 106.496C103.361 106.275 103.493 106.054 103.625 105.833L105.565 102.826H106.799V107.867H105.521Z" fill="#54565A"/>
		<path d="M111.956 102.826V107.867H110.678V105.921H109.84C109.752 105.921 109.708 105.921 109.62 105.921C109.532 105.921 109.488 105.966 109.443 106.01C109.399 106.054 109.355 106.098 109.311 106.143C109.267 106.187 109.267 106.275 109.267 106.319L108.826 107.823H107.46L107.945 106.275C107.989 106.098 108.077 105.921 108.253 105.789C108.386 105.656 108.606 105.568 108.826 105.523C107.989 105.435 107.768 104.993 107.768 104.241C107.768 103.135 108.386 102.737 109.84 102.737C110.545 102.781 111.251 102.781 111.956 102.826ZM110.678 103.622H109.796C109.179 103.622 108.959 103.754 108.959 104.329C108.959 104.904 109.179 105.081 109.796 105.081H110.678V103.622Z" fill="#54565A"/>
	</symbol>
</svg>
